<?xml version="1.0" encoding="UTF-8"?>
<svg width="60px" height="61px" viewBox="0 0 60 61" version="1.1" xmlns="http://www.w3.org/2000/svg" xmlns:xlink="http://www.w3.org/1999/xlink">
    <!-- Generator: Sketch 51.2 (57519) - http://www.bohemiancoding.com/sketch -->
    <title>ackama-logo-cyan</title>
    <desc>Created with Sketch.</desc>
    <defs></defs>
    <g id="Page-1" stroke="none" stroke-width="1" fill="none" fill-rule="evenodd">
        <g id="Organism/CTA+Related" transform="translate(-1362.000000, -995.000000)" fill="#075EA3" fill-rule="nonzero">
            <g id="Organism/CTA+Related-Copy-6" transform="translate(0.000000, 259.446645)">
                <g id="Footer/Black/Ocean" transform="translate(0.000000, 502.849066)">
                    <g id="Footer" transform="translate(97.000000, 146.000000)">
                        <g id="Content">
                            <g id="Brand/logo/Cyan" transform="translate(1265.000000, 87.000000)">
                                <path d="M0.164291466,0.164315353 L0.164291466,29.980083 C0.154294626,22.070535 3.29744963,14.4832384 8.89792531,8.89792531 L0.164291466,0.164315353 Z" id="Shape" opacity="0.3"></path>
                                <path d="M59.7958745,29.980083 L59.7958745,59.7958506 L51.0622407,51.0622407 C56.6627163,45.4769276 59.8058713,37.889631 59.7958745,29.980083 Z" id="Shape" opacity="0.7"></path>
                                <path d="M0.164315353,0.164291466 L29.980083,0.164291466 C22.070535,0.154294626 14.4832384,3.29744963 8.89792531,8.89792531 L0.164315353,0.164291466 Z" id="Shape" opacity="0.7"></path>
                                <path d="M29.980083,59.7958745 L59.7958506,59.7958745 L51.0622407,51.0622407 C45.4769276,56.6627163 37.889631,59.8058713 29.980083,59.7958745 Z" id="Shape" opacity="0.3"></path>
                                <path d="M8.89792531,8.89792531 C-2.57579637,20.5699587 -2.49551988,39.3090812 9.07778245,50.8823835 C20.6510848,62.4556859 39.3902072,62.5359623 51.0622407,51.0622407 L8.89792531,8.89792531 Z" id="Shape" opacity="0.5"></path>
                                <path d="M59.7958506,29.980083 C59.7952247,17.9212115 52.5308536,7.05001198 41.3898739,2.43536633 C30.2488943,-2.17927931 17.4251481,0.371328449 8.89792531,8.89792531 L51.0622407,51.0622407 C56.6627163,45.4769276 59.8058713,37.889631 59.7958506,29.980083 Z" id="Shape"></path>
                            </g>
                        </g>
                    </g>
                </g>
            </g>
        </g>
    </g>
</svg>